<?xml version="1.0" encoding="UTF-8"?>
<svg version="1.1" xmlns="http://www.w3.org/2000/svg" width="512" height="512">
<path d="M0 0 C1.28682678 -0.0185051 2.57365356 -0.03701019 3.8994751 -0.05607605 C5.32363892 -0.05627281 6.74780287 -0.05601333 8.17196655 -0.05534363 C9.67356866 -0.06895167 11.1751568 -0.08418493 12.67672729 -0.10092163 C16.75559232 -0.14054325 20.83413947 -0.15402236 24.91317797 -0.16037965 C27.46415133 -0.16544658 30.01504293 -0.17595818 32.56599045 -0.18837547 C41.4734315 -0.23138505 50.38063585 -0.25259213 59.28817749 -0.25456238 C67.57739754 -0.25699321 75.86536241 -0.30791672 84.15422881 -0.38145429 C91.2797231 -0.44242693 98.40480552 -0.46847719 105.53055894 -0.46789759 C109.78240394 -0.46818017 114.03304768 -0.48246057 118.28462601 -0.53225136 C122.2891646 -0.57799924 126.29145107 -0.5800407 130.29611206 -0.54956245 C131.75938499 -0.54567547 133.22279546 -0.5569366 134.68580246 -0.58510208 C142.39703268 -0.7241663 147.5470044 -0.37855881 153.44927979 4.87739563 C154.90713826 6.40620571 156.33976881 7.95967664 157.73983765 9.5415802 C159.0162995 10.78860458 160.30038428 12.02795732 161.59725952 13.2537384 C162.80372526 14.44723327 164.00747337 15.64348111 165.20858765 16.84236145 C165.85557617 17.48602158 166.5025647 18.1296817 167.16915894 18.79284668 C168.51464689 20.13333437 169.85884285 21.47512009 171.20175171 22.81819153 C173.25853416 24.87275655 175.32323572 26.91914641 177.38827515 28.96540833 C178.70386693 30.27807084 180.01898867 31.59120466 181.33358765 32.90486145 C181.94810791 33.5121962 182.56262817 34.11953094 183.19577026 34.74526978 C183.76396484 35.31654099 184.33215942 35.88781219 184.91757202 36.47639465 C185.41591553 36.97331314 185.91425903 37.47023163 186.42770386 37.98220825 C190.14089438 42.39505485 190.00616421 46.66847309 189.93515015 52.2447052 C189.93232025 53.08249512 189.92949036 53.92028503 189.92657471 54.78346252 C189.91540113 57.45298183 189.89030185 60.1221627 189.86483765 62.7915802 C189.85480419 64.60407535 189.84567898 66.41657576 189.8374939 68.2290802 C189.81547105 72.66671013 189.78096069 77.10408783 189.73983765 81.5415802 C190.29389699 81.54082076 190.84795634 81.54006132 191.41880536 81.53927886 C224.28692258 81.49448263 257.15503212 81.46018684 290.02317305 81.43944954 C293.97332432 81.43694825 297.92347553 81.43435959 301.87362671 81.43171692 C302.66000128 81.4311923 303.44637586 81.43066768 304.25657997 81.43012716 C316.97460688 81.42143433 329.69261564 81.40567055 342.41063181 81.38727461 C355.46911192 81.36854432 368.52758255 81.35745687 381.58607554 81.35340321 C389.63808489 81.35066464 397.6900429 81.34202793 405.74203643 81.32574727 C411.92555541 81.31388456 418.10903559 81.31267675 424.29256439 81.31536484 C426.8224672 81.31481595 429.352372 81.31085558 431.88226318 81.30316925 C435.34635333 81.29316348 438.81022696 81.2956319 442.27432251 81.30107117 C443.76270689 81.29233264 443.76270689 81.29233264 445.28115964 81.28341758 C457.88761349 81.33662335 468.40422416 82.90399222 477.99765015 91.58454895 C488.33498994 102.36055815 488.32397664 113.57150509 488.25741577 127.69392395 C488.26284252 129.62989324 488.26996827 131.56585839 488.27865601 133.5018158 C488.29682646 138.73736911 488.28984776 143.97260566 488.27713966 149.20816422 C488.26697943 154.69943821 488.27641373 160.19068594 488.28268433 165.68196106 C488.28995193 174.90181829 488.28039629 184.12154716 488.26132202 193.34138489 C488.23955506 203.98538087 488.24660705 214.62907033 488.26862764 225.27305889 C488.2868069 234.42835702 488.28932761 243.58356313 488.27887297 252.73887348 C488.27265194 258.19967991 488.27176411 263.66034247 488.28501892 269.12113953 C488.29661355 274.25622205 488.28848572 279.39091115 488.26544189 284.52595139 C488.26017409 286.40521976 488.26163537 288.28452151 488.27049255 290.1637764 C488.32992013 304.05873073 487.22937482 313.83612384 477.25546265 324.3384552 C470.03077929 330.66566236 462.43689106 332.69529426 453.04574585 332.65510559 C452.15773285 332.65525162 451.26971985 332.65539764 450.35479736 332.6555481 C447.41671311 332.65485088 444.47869209 332.64706738 441.5406189 332.63923645 C439.50466446 332.63737159 437.46870957 332.63594801 435.43275452 332.63494873 C430.07172407 332.63112889 424.71072068 332.62130312 419.34970093 332.61024475 C413.88014085 332.60001919 408.4105764 332.59544865 402.94100952 332.59040833 C392.20727176 332.5796804 381.47356118 332.56208789 370.73983765 332.5415802 C370.73983765 340.7915802 370.73983765 349.0415802 370.73983765 357.5415802 C374.32085327 357.48937317 374.32085327 357.48937317 377.97421265 357.43611145 C380.32755339 357.41260844 382.68088027 357.39445338 385.03427124 357.37678528 C386.64989223 357.36184665 388.26547375 357.34148819 389.88095093 357.31526184 C414.65999832 356.92352861 414.65999832 356.92352861 423.98983765 364.8150177 C431.1253667 371.85498164 433.68184939 378.38803943 434.00546265 388.4009552 C434.01067931 390.03116351 434.00543709 391.66143818 433.98983765 393.2915802 C433.99757202 394.11529114 434.0053064 394.93900208 434.01327515 395.78767395 C433.99682743 400.89468874 433.7868292 405.03959119 430.42420524 409.14964634 C428.33026429 410.88004493 427.3079977 410.9180985 424.61808109 410.92189693 C423.77507641 410.93033688 422.93207173 410.93877682 422.06352144 410.94747251 C421.13726991 410.94146247 420.21101837 410.93545242 419.25669861 410.92926025 C418.27282148 410.93464579 417.28894435 410.94003133 416.27525276 410.94558007 C412.96327335 410.95994011 409.6516891 410.95273605 406.33969116 410.94563293 C403.9713814 410.95133229 401.60307438 410.95829485 399.23477173 410.96643066 C393.46057792 410.98255442 387.686509 410.98445295 381.91229744 410.97921776 C377.21988584 410.97517988 372.52750641 410.97661505 367.83509636 410.98196602 C367.16779566 410.98271444 366.50049496 410.98346286 365.81297303 410.98423396 C364.45744355 410.98576541 363.10191408 410.98730375 361.74638461 410.98884893 C349.02796968 411.00258407 336.30961621 410.99712924 323.59120267 410.98566372 C311.95105362 410.97573077 300.31106351 410.9886712 288.67093898 411.01259791 C276.72431702 411.03696997 264.77776914 411.04660143 252.83112282 411.03994519 C246.1217947 411.03644867 239.41258885 411.03871337 232.7032795 411.05619621 C226.39545947 411.07161494 220.08794388 411.06776609 213.78013611 411.04889107 C211.46134438 411.04519113 209.14253034 411.04835424 206.82375908 411.05877686 C203.66547056 411.07189214 200.508204 411.06052292 197.34996033 411.04278564 C196.42593951 411.05239065 195.5019187 411.06199566 194.54989725 411.07189173 C188.37791376 411.00025886 188.37791376 411.00025886 185.17254543 408.69609165 C182.05862767 404.0133702 183.13193687 397.77813827 183.17733765 392.3540802 C183.15348999 391.06437317 183.12964233 389.77466614 183.10507202 388.44587708 C183.11862099 379.60743277 184.30608448 373.3052871 190.41952515 366.7368927 C198.46168381 359.01481996 208.20374592 357.36819747 218.98202515 357.44392395 C219.75039703 357.4453389 220.51876892 357.44675385 221.3104248 357.44821167 C223.74527003 357.45377337 226.18002059 357.4663186 228.61483765 357.4790802 C230.27369048 357.48410016 231.93254476 357.4886622 233.59140015 357.49275208 C237.64094443 357.50287594 241.69028605 357.5224585 245.73983765 357.5415802 C245.73983765 349.2915802 245.73983765 341.0415802 245.73983765 332.5415802 C241.68339966 332.5730011 241.68339966 332.5730011 237.54501343 332.60505676 C228.58446634 332.67149931 219.62390804 332.7155844 210.6631794 332.74882889 C205.23319534 332.76965456 199.80346486 332.79788033 194.37362671 332.84333801 C189.12811687 332.88697496 183.88285012 332.91075502 178.6371727 332.92108917 C176.64139864 332.92844857 174.64563705 332.94281947 172.64996719 332.96450043 C158.70854198 333.10986082 148.28971394 332.75504455 137.71640015 322.68611145 C129.6185458 313.90009952 128.43378033 305.28234888 128.54452515 293.70173645 C128.54735504 292.57964279 128.55018494 291.45754913 128.55310059 290.30145264 C128.5642499 286.73555102 128.58934514 283.16990526 128.61483765 279.6040802 C128.62487422 277.17895363 128.63399888 274.75382311 128.6421814 272.32868958 C128.66417206 266.39956657 128.69759737 260.47059167 128.73983765 254.5415802 C127.70173761 254.54711096 127.70173761 254.54711096 126.64266586 254.55275345 C109.8090265 254.64106178 92.97546042 254.7072689 76.14164352 254.74882889 C68.00095048 254.76946081 59.86041197 254.7975933 51.71981812 254.84333801 C44.62509123 254.88318667 37.53047626 254.90900843 30.43564057 254.91793418 C26.67835529 254.92315234 22.92139019 254.9354295 19.16420746 254.96450043 C14.97149914 254.99667855 10.77934869 254.99754089 6.58651733 254.99568176 C5.33854874 255.01006287 4.09058014 255.02444397 2.80479431 255.03926086 C1.66338486 255.03376221 0.5219754 255.02826355 -0.65402222 255.02259827 C-2.14179609 255.02812902 -2.14179609 255.02812902 -3.65962601 255.03377151 C-6.26016235 254.5415802 -6.26016235 254.5415802 -8.5788002 253.12359238 C-11.17122734 249.14248787 -10.81215888 245.4039591 -10.76809692 240.74836731 C-10.77433689 239.74321799 -10.78057685 238.73806868 -10.7870059 237.70246029 C-10.80299846 234.32437832 -10.79030678 230.94701165 -10.77774048 227.56892395 C-10.78315879 225.15120522 -10.79027981 222.73348979 -10.79898071 220.31578064 C-10.81535262 214.42472047 -10.81292055 208.53384701 -10.80133015 202.64279199 C-10.79230091 197.85552818 -10.7910696 193.06832151 -10.79542542 188.28105164 C-10.79603835 187.60000962 -10.79665128 186.91896761 -10.79728279 186.21728796 C-10.79856167 184.833815 -10.79985852 183.45034206 -10.80117315 182.06686914 C-10.81258256 169.09042779 -10.79945963 156.11409942 -10.77797168 143.1376766 C-10.76010033 132.00044465 -10.76320434 120.86337945 -10.78164673 109.72615051 C-10.80304712 96.79652567 -10.81148389 83.86699989 -10.79919767 70.93735981 C-10.79792346 69.55894281 -10.79666598 68.18052579 -10.79542542 66.80210876 C-10.79480831 66.12388044 -10.79419121 65.44565211 -10.79355541 64.74687141 C-10.7901 59.96470225 -10.79593493 55.18259585 -10.80534363 50.4004364 C-10.81772584 43.96539868 -10.80892506 37.53060214 -10.7857666 31.0955925 C-10.7804652 28.73004049 -10.78201758 26.36446203 -10.79081726 23.99892044 C-10.80169944 20.77718258 -10.78809705 17.55646539 -10.76809692 14.33479309 C-10.77701981 13.39199965 -10.7859427 12.44920622 -10.79513597 11.47784328 C-10.71998171 5.2642434 -10.71998171 5.2642434 -8.61967659 1.96335316 C-5.57167601 0.12671885 -3.55623269 0.02543194 0 0 Z M6.73983765 17.5415802 C6.73983765 90.1415802 6.73983765 162.7415802 6.73983765 237.5415802 C61.51983765 237.5415802 116.29983765 237.5415802 172.73983765 237.5415802 C172.73983765 235.5615802 172.73983765 233.5815802 172.73983765 231.5415802 C172.1746492 231.53571396 171.60946075 231.52984772 171.02714539 231.52380371 C165.13816075 231.45980948 159.24971955 231.37537436 153.36117554 231.27912903 C151.16430837 231.24589965 148.96735624 231.21786154 146.77035522 231.19514465 C143.61007522 231.16156266 140.45057244 231.10924386 137.2906189 231.05329895 C136.31023148 231.04690903 135.32984406 231.0405191 134.31974792 231.03393555 C129.24213396 230.92475717 125.94428043 230.68172608 121.73983765 227.5415802 C121.07983765 227.5415802 120.41983765 227.5415802 119.73983765 227.5415802 C118.01272207 223.28136178 116.61869324 219.71263369 116.57870483 215.08943176 C116.56909729 214.19129761 116.55948975 213.29316345 116.54959106 212.36781311 C116.54534119 211.3990625 116.54109131 210.43031189 116.53671265 209.4322052 C116.53101257 208.43203369 116.5253125 207.43186218 116.5194397 206.40138245 C116.5099902 204.28308673 116.50345592 202.16477631 116.49960327 200.04646301 C116.48991694 196.81800897 116.45890066 193.5901968 116.42733765 190.3618927 C116.42080543 188.30200064 116.41555582 186.24210403 116.41171265 184.1822052 C116.39936584 183.22155151 116.38701904 182.26089783 116.3742981 181.27113342 C116.39302951 175.5867137 116.9482183 171.53771207 119.73983765 166.5415802 C134.8637487 154.56848395 151.88748758 161.01549725 172.73983765 160.5415802 C172.73983765 125.5615802 172.73983765 90.5815802 172.73983765 54.5415802 C161.84983765 54.2115802 150.95983765 53.8815802 139.73983765 53.5415802 C130.83831928 44.64006184 135.12108899 28.59786907 134.73983765 17.5415802 C92.49983765 17.5415802 50.25983765 17.5415802 6.73983765 17.5415802 Z M152.73983765 30.5415802 C152.73983765 32.8515802 152.73983765 35.1615802 152.73983765 37.5415802 C155.04983765 37.5415802 157.35983765 37.5415802 159.73983765 37.5415802 C158.76417653 36.37198033 157.78421265 35.20596843 156.80233765 34.0415802 C155.98442749 33.06704895 155.98442749 33.06704895 155.1499939 32.0728302 C154.68464233 31.5675177 154.21929077 31.0622052 153.73983765 30.5415802 C153.40983765 30.5415802 153.07983765 30.5415802 152.73983765 30.5415802 Z M189.73983765 98.5415802 C189.73983765 100.5215802 189.73983765 102.5015802 189.73983765 104.5415802 C190.30713488 104.54217729 190.87443212 104.54277438 191.45892018 104.54338956 C225.06985704 104.57927126 258.68069001 104.6358913 292.29154171 104.71950115 C296.32582033 104.7295188 300.36009935 104.7393629 304.39437866 104.74909973 C305.59912439 104.75201179 305.59912439 104.75201179 306.82820842 104.75498268 C319.83871096 104.78601709 332.84919584 104.80298734 345.85972842 104.81477442 C359.20637944 104.82717853 372.55293774 104.85466315 385.89953023 104.89619327 C394.13736805 104.92134995 402.37505213 104.93469591 410.6129289 104.93300977 C416.25936009 104.93298005 421.90563449 104.94757778 427.5520046 104.97374448 C430.8113951 104.98841528 434.07039844 104.99440697 437.32982445 104.98738289 C440.86232452 104.98078263 444.3938799 104.99856969 447.92628479 105.02259827 C449.47443612 105.01095764 449.47443612 105.01095764 451.05386323 104.99908185 C455.47486825 105.05252478 458.02052092 105.10088057 461.8531847 107.44901657 C465.13293242 111.08671835 464.87072996 113.49183702 464.88700867 118.32965088 C464.89068536 119.03569759 464.89436204 119.7417443 464.89815015 120.46918637 C464.90920695 122.84675915 464.91303414 125.22428826 464.9168396 127.60188293 C464.9231026 129.30172363 464.92974925 131.00156295 464.93675232 132.70140076 C464.95417386 137.32736451 464.96471659 141.95331792 464.97295785 146.57930636 C464.97810411 149.46687485 464.98417991 152.3544401 464.99046898 155.2420063 C465.00952174 164.2692585 465.02375436 173.2965025 465.03208095 182.32377094 C465.04186365 192.75834 465.06820969 203.1926975 465.10858184 213.62719196 C465.13868997 221.68411457 465.15354465 229.74097634 465.15686196 237.79795414 C465.15921795 242.61427344 465.16824969 247.43036674 465.19332314 252.2466259 C465.21651722 256.77499276 465.2208723 261.30298345 465.21056175 265.8313942 C465.21006421 267.49592016 465.21644866 269.1604641 465.2301178 270.82493401 C465.24770279 273.09258835 465.24079858 275.3588728 465.22758484 277.62652588 C465.22997319 278.89692435 465.23236155 280.16732283 465.23482227 281.47621822 C464.73983765 284.5415802 464.73983765 284.5415802 463.03667086 286.20939553 C460.29214301 287.80124726 458.65520654 287.91837329 455.49552155 287.92189693 C454.4275885 287.93033688 453.35965545 287.93877682 452.25936079 287.94747251 C451.0870014 287.94146247 449.91464202 287.93545242 448.70675659 287.92926025 C447.46067769 287.93464579 446.21459878 287.94003133 444.93075991 287.94558007 C441.46987342 287.957429 438.00946725 287.95578003 434.54859948 287.94841325 C430.81711083 287.94369196 427.08567433 287.95618214 423.35420227 287.96643066 C416.04343783 287.98364396 408.73275924 287.98445352 401.42197978 287.97921776 C395.4815012 287.97517984 389.54104804 287.97661511 383.60057068 287.98196602 C382.33338819 287.98308865 382.33338819 287.98308865 381.04060605 287.98423396 C379.32455011 287.9857654 377.60849417 287.98730375 375.89243823 287.98884893 C359.79285188 288.00258291 343.69331409 287.99712979 327.59372884 287.98566372 C312.85619006 287.97572844 298.11877678 287.98867549 283.38125736 288.01259791 C268.25701235 288.03696358 253.13282586 288.04660315 238.00856161 288.03994519 C229.51408838 288.03644757 221.01971172 288.03872078 212.5252533 288.05619621 C205.29478091 288.07088651 198.06447309 288.0715953 190.83400404 288.0541253 C187.14334196 288.04558693 183.45297426 288.04353432 179.76232719 288.05877686 C175.76570536 288.0750791 171.76954245 288.06053645 167.7729187 288.04278564 C166.60055932 288.05239065 165.42819993 288.06199566 164.2203145 288.07189173 C163.15238145 288.06207743 162.0844484 288.05226314 160.98415375 288.04215145 C160.06132331 288.04204411 159.13849288 288.04193678 158.18769789 288.04182619 C154.95571114 287.3813357 153.75864122 286.10121855 151.73983765 283.5415802 C151.19393921 280.42536926 151.19393921 280.42536926 151.13046265 276.8072052 C151.09823608 275.51169739 151.06600952 274.21618958 151.0328064 272.88142395 C151.01806296 271.51814718 151.00374542 270.15486575 150.98983765 268.7915802 C150.96166951 267.41263645 150.93174087 266.03372745 150.8999939 264.65486145 C150.8292704 261.28370804 150.77658261 257.9132474 150.73983765 254.5415802 C149.08983765 254.5415802 147.43983765 254.5415802 145.73983765 254.5415802 C145.66363752 261.26758042 145.61117473 267.99346888 145.57504272 274.71980286 C145.55997649 277.00695455 145.53951968 279.29407745 145.51351929 281.58113098 C145.47704158 284.87270727 145.46008931 288.16390083 145.4468689 291.4556427 C145.43138504 292.47461639 145.41590118 293.49359009 145.39994812 294.54344177 C145.39844677 300.90776758 145.94138551 305.56861434 150.4937439 310.40486145 C151.3889978 311.12222473 151.3889978 311.12222473 152.30233765 311.8540802 C152.90175171 312.34521301 153.50116577 312.83634583 154.1187439 313.34236145 C157.09396766 315.54331012 159.01085688 315.66922979 162.66441536 315.67859459 C164.23574122 315.6862064 164.23574122 315.6862064 165.83881104 315.69397199 C167.57865023 315.69471863 167.57865023 315.69471863 169.3536377 315.69548035 C170.57885128 315.6998626 171.80406486 315.70424485 173.06640613 315.7087599 C176.47832775 315.71984247 179.8902034 315.72637793 183.30213642 315.73094106 C186.97782637 315.73689061 190.65349934 315.74850218 194.32917786 315.75923157 C203.2123983 315.78377216 212.09562438 315.79838604 220.97886831 315.81129164 C223.48747199 315.81500264 225.99607512 315.81897596 228.50467825 315.8230443 C244.07850755 315.84828211 259.6523377 315.87033807 275.22618294 315.88277245 C278.83490121 315.88570221 282.44361945 315.88866386 286.05233765 315.89167786 C287.39775599 315.89279693 287.39775599 315.89279693 288.77035449 315.89393862 C303.29840092 315.90659058 317.82632491 315.93981026 332.3543141 315.98147969 C347.26606052 316.02389951 362.17774426 316.04746762 377.08955085 316.05269301 C385.46350242 316.0561073 393.83726273 316.06786432 402.21115494 316.10079575 C409.34348326 316.12879826 416.47558115 316.13979483 423.60796018 316.12860028 C427.24652812 316.12341386 430.88461352 316.12629839 434.52311134 316.15106583 C438.47031532 316.17771 442.41686183 316.16549696 446.36413574 316.14958191 C447.51064421 316.163464 448.65715267 316.17734608 449.83840382 316.19164884 C456.65627327 316.12385509 461.66506056 315.34987632 466.73983765 310.5415802 C470.56912573 306.00778861 471.32190592 301.25522567 471.26123047 295.47129822 C471.26888156 294.68762528 471.27653266 293.90395235 471.2844156 293.09653175 C471.30495861 290.48565191 471.29711475 287.87566141 471.28915405 285.26472473 C471.29785362 283.38668509 471.30822171 281.50865254 471.32012939 279.63063049 C471.34687569 274.53961376 471.34807056 269.44889428 471.3430028 264.35782099 C471.34086098 260.10341188 471.35063626 255.84906263 471.36021364 251.59466636 C471.38239251 241.55527816 471.38328536 231.51603963 471.3711853 221.47663879 C471.35910602 211.12966138 471.38372909 200.78322792 471.42632544 190.43634331 C471.46158556 181.5435309 471.47355576 172.65089142 471.46704996 163.7580117 C471.46342822 158.45079433 471.46865631 153.14396497 471.49647903 147.83681107 C471.52167288 142.84444533 471.51771421 137.8529259 471.49165726 132.86057281 C471.48693443 131.03247921 471.49236422 129.2043257 471.5089035 127.37630081 C471.77331875 114.94589735 471.77331875 114.94589735 466.31912804 104.05399895 C459.65498614 97.67203575 450.63663997 98.39641257 442.03381348 98.42132568 C440.95471266 98.42047126 439.87561184 98.41961683 438.76381099 98.41873652 C435.14789283 98.41708938 431.53202106 98.42259059 427.91610718 98.42805481 C425.32412212 98.42833687 422.73213699 98.42817857 420.14015198 98.4276123 C414.55973963 98.42708842 408.979339 98.43022107 403.3989296 98.43585014 C395.33063428 98.44398349 387.26234462 98.44658225 379.19404565 98.44783814 C366.10318665 98.45002577 353.01233389 98.45667804 339.92147827 98.46614075 C327.20630932 98.47532232 314.49114206 98.48239951 301.77597046 98.48664856 C300.59996521 98.48704264 300.59996521 98.48704264 299.40020229 98.48744469 C295.46701537 98.48874975 291.53382843 98.49001345 287.60064149 98.49125659 C254.980369 98.50162022 222.36010416 98.5192307 189.73983765 98.5415802 Z M189.73983765 121.5415802 C189.73983765 134.4115802 189.73983765 147.2815802 189.73983765 160.5415802 C193.69983765 160.5415802 197.65983765 160.5415802 201.73983765 160.5415802 C201.77722046 159.22802551 201.81460327 157.91447083 201.8531189 156.56111145 C201.91879422 154.82540656 201.98524102 153.08973073 202.05233765 151.3540802 C202.07489624 150.48976379 202.09745483 149.62544739 202.12069702 148.73493958 C202.32464418 143.89582969 202.61739442 140.47585866 205.73983765 136.5415802 C208.70872581 134.23244496 211.85562578 134.24492567 215.54452515 134.0806427 C221.50873071 135.33291362 226.34326155 140.65922071 230.80233765 144.6040802 C232.13511154 145.77138592 233.46845459 146.93804208 234.80233765 148.1040802 C235.46491577 148.68415833 236.1274939 149.26423645 236.81015015 149.8618927 C239.61669403 152.30483576 242.456063 154.70765665 245.30233765 157.1040802 C249.24283807 160.42408663 253.166597 163.76196819 257.0718689 167.12336731 C264.40439226 173.43448934 271.77173566 179.70554209 279.4312439 185.6197052 C282.35798295 188.05617832 283.49303967 189.93971937 284.73983765 193.5415802 C284.90706877 198.72574497 284.16905981 201.4838308 280.86483765 205.4790802 C277.1420264 209.36802096 273.02411071 212.71894537 268.81796265 216.06892395 C265.46128511 218.76534131 262.18895487 221.54423185 258.92733765 224.3540802 C258.34097534 224.8581842 257.75461304 225.36228821 257.15048218 225.88166809 C255.34599267 227.4338828 253.54272303 228.98750272 251.73983765 230.5415802 C243.49279824 237.65048371 235.23009248 244.72242315 226.73983765 251.5415802 C226.01022827 252.15259583 225.2806189 252.76361145 224.52890015 253.3931427 C220.36661814 256.75805267 217.31004248 258.64473214 211.73983765 258.5415802 C207.48796768 256.98801233 205.11934579 255.3634863 202.73983765 251.5415802 C202.3074646 249.25154114 202.3074646 249.25154114 202.2281189 246.7759552 C202.19266968 245.88650208 202.15722046 244.99704895 202.12069702 244.0806427 C202.08685913 242.70005676 202.08685913 242.70005676 202.05233765 241.2915802 C202.01817749 240.35572083 201.98401733 239.41986145 201.94882202 238.4556427 C201.86652663 236.15137174 201.80150051 233.84649557 201.73983765 231.5415802 C197.77983765 231.5415802 193.81983765 231.5415802 189.73983765 231.5415802 C189.7140564 232.79454895 189.68827515 234.0475177 189.66171265 235.3384552 C189.60542596 236.98953143 189.54807874 238.64057175 189.48983765 240.2915802 C189.46856812 241.5290802 189.46856812 241.5290802 189.4468689 242.7915802 C189.29989149 246.43661997 189.12033201 248.89949595 187.23983765 252.0728302 C183.56216176 254.23346478 180.1845987 254.21375237 175.98983765 254.2915802 C173.26733765 254.3740802 170.54483765 254.4565802 167.73983765 254.5415802 C167.73983765 260.1515802 167.73983765 265.7615802 167.73983765 271.5415802 C260.46983765 271.5415802 353.19983765 271.5415802 448.73983765 271.5415802 C448.73983765 222.0415802 448.73983765 172.5415802 448.73983765 121.5415802 C363.26983765 121.5415802 277.79983765 121.5415802 189.73983765 121.5415802 Z M218.73983765 157.5415802 C218.66636108 158.98790833 218.66636108 158.98790833 218.59140015 160.4634552 C218.51663452 161.72673645 218.4418689 162.9900177 218.36483765 164.2915802 C218.29522827 165.54454895 218.2256189 166.7975177 218.15390015 168.0884552 C217.7850987 171.16412007 217.45102935 173.00556947 215.73983765 175.5415802 C212.67184644 177.07557581 209.44581497 176.72105974 206.07723999 176.74690247 C205.28690872 176.75680206 204.49657745 176.76670166 203.68229675 176.77690125 C201.06348695 176.80855142 198.44465899 176.83328753 195.82577515 176.85798645 C194.01258872 176.87855294 192.19940713 176.89954933 190.38623047 176.92095947 C185.60885523 176.97621162 180.8314365 177.02560702 176.0539856 177.07380676 C170.32456697 177.13282019 164.595228 177.19906543 158.86587524 177.26410675 C150.15724461 177.36215581 141.44856339 177.45098478 132.73983765 177.5415802 C132.73983765 189.7515802 132.73983765 201.9615802 132.73983765 214.5415802 C141.20704468 214.59765442 141.20704468 214.59765442 149.8453064 214.65486145 C153.42281082 214.68513986 157.0002654 214.71628683 160.57772827 214.75056458 C166.25519297 214.80488087 171.93255908 214.85599117 177.61019897 214.88801575 C182.18800235 214.91403801 186.76547453 214.9544328 191.34307289 215.00476646 C193.08890982 215.02144247 194.83480404 215.03295218 196.58070946 215.03919411 C199.02757809 215.04882731 201.47359805 215.07687639 203.92025757 215.10920715 C204.64098953 215.10777206 205.3617215 215.10633698 206.10429382 215.1048584 C210.46850379 215.18633517 213.26452301 215.86362892 216.73983765 218.5415802 C218.26090398 221.58371287 218.11413102 224.82205592 218.30233765 228.1665802 C218.34552124 228.87298645 218.38870483 229.5793927 218.43319702 230.3072052 C218.53928515 232.05176557 218.64006654 233.79664717 218.73983765 235.5415802 C223.43982368 232.56110125 227.57399938 229.22378552 231.73983765 225.5415802 C233.06768088 224.37979974 234.39581266 223.21834901 235.72421265 222.0572052 C236.39259155 221.47132629 237.06097046 220.88544739 237.74960327 220.28181458 C240.81509914 217.6013859 243.8992991 214.94306809 246.98983765 212.2915802 C247.56040894 211.80205872 248.13098022 211.31253723 248.71884155 210.80818176 C253.99034257 206.30099542 259.34547165 201.90110863 264.73983765 197.5415802 C263.44719638 194.64283603 262.17496196 192.77555494 259.75546265 190.7290802 C259.15701538 190.21700012 258.55856812 189.70492004 257.94198608 189.17732239 C256.97567261 188.36763 256.97567261 188.36763 255.98983765 187.5415802 C255.32242554 186.9734259 254.65501343 186.40527161 253.96737671 185.81990051 C252.57857382 184.63801026 251.18759434 183.45867321 249.79452515 182.28181458 C247.86100275 180.64420197 245.93864433 178.99471393 244.02108765 177.3384552 C232.19408871 166.18254157 232.19408871 166.18254157 218.73983765 157.5415802 Z M262.73983765 332.5415802 C262.73983765 340.7915802 262.73983765 349.0415802 262.73983765 357.5415802 C292.76983765 357.5415802 322.79983765 357.5415802 353.73983765 357.5415802 C353.73983765 349.2915802 353.73983765 341.0415802 353.73983765 332.5415802 C323.70983765 332.5415802 293.67983765 332.5415802 262.73983765 332.5415802 Z M203.73983765 377.5415802 C199.53983765 382.30824687 199.53983765 382.30824687 200.73983765 393.5415802 C271.68983765 393.5415802 342.63983765 393.5415802 415.73983765 393.5415802 C416.86445769 382.56559085 416.86445769 382.56559085 413.61483765 378.4165802 C408.17616309 374.86961854 403.11958597 374.24779237 396.74511719 374.28088379 C395.95750956 374.27705824 395.16990193 374.27323269 394.35842741 374.26929122 C391.72849688 374.25900128 389.0987863 374.26294573 386.46884155 374.266922 C384.57948098 374.26257329 382.69012218 374.25738961 380.80076599 374.25143433 C375.67469467 374.23804977 370.5486971 374.23746509 365.42261171 374.23999763 C361.14083812 374.24106776 356.85907942 374.23618283 352.57730901 374.2313922 C342.47424732 374.22029876 332.3712228 374.21985862 322.26815796 374.22590637 C311.85147248 374.23194607 301.43492208 374.21963484 291.01825964 374.1983363 C282.06945899 374.18071297 273.12070131 374.17472013 264.17188394 374.17797405 C258.82958515 374.17978597 253.4873827 374.17715977 248.14509964 374.16325951 C243.12013438 374.15067403 238.09537947 374.15263216 233.0704174 374.16567039 C231.22900636 374.1680342 229.38758048 374.16530854 227.54618645 374.15704727 C225.02672336 374.14656132 222.50796365 374.15469504 219.98852539 374.1673584 C219.26496782 374.15998411 218.54141025 374.15260983 217.79592669 374.14501208 C212.78963696 374.19771742 208.08300024 374.98044466 203.73983765 377.5415802 Z " fill="#F2781B" transform="translate(17.260162353515625,50.45841979980469)"/>
<path d="M0 0 C0.94632294 -0.00571014 1.89264587 -0.01142029 2.86764526 -0.01730347 C4.43002678 -0.01898026 4.43002678 -0.01898026 6.02397156 -0.02069092 C7.66559265 -0.02813828 7.66559265 -0.02813828 9.34037781 -0.03573608 C12.9740918 -0.05038476 16.60776214 -0.05716433 20.24150085 -0.06268311 C22.7601522 -0.06843246 25.27880353 -0.07419022 27.79745483 -0.07995605 C32.40802605 -0.08912829 37.0185841 -0.09542538 41.62916213 -0.09845281 C48.41309061 -0.10293179 55.19681742 -0.12047123 61.98068458 -0.1494534 C67.85717814 -0.17368678 73.73360449 -0.18139775 79.61014366 -0.18312836 C82.10962713 -0.18615909 84.60910965 -0.19420169 87.10856056 -0.20731354 C90.60395766 -0.22434046 94.09886248 -0.22250167 97.59428406 -0.21600342 C98.62979904 -0.2252182 99.66531403 -0.23443298 100.73220825 -0.243927 C109.66707954 -0.19181077 109.66707954 -0.19181077 113.5032196 3.14044189 C115.16138758 6.45677785 115.7408318 8.21159424 114.8157196 11.82794189 C113.51792793 14.11452723 112.54078777 15.49945075 110.5032196 17.14044189 C108.33642769 17.52355194 108.33642769 17.52355194 105.77229309 17.53485107 C104.79935303 17.54620087 103.82641296 17.55755066 102.82398987 17.56924438 C101.75794525 17.56631378 100.69190063 17.56338318 99.59355164 17.56036377 C98.46973083 17.56883331 97.34591003 17.57730286 96.18803406 17.58602905 C92.46225252 17.6094836 88.73688197 17.6104191 85.0110321 17.60919189 C82.42654758 17.6162888 79.84206464 17.6239871 77.25758362 17.63226318 C71.83534229 17.64572782 66.41326233 17.64744864 60.99101257 17.64141846 C54.72706666 17.63478021 48.46370999 17.65763073 42.19988358 17.69473219 C36.17115672 17.7291433 30.14274255 17.73576482 24.11390305 17.73164368 C21.5502179 17.73333925 18.98652531 17.7430235 16.42290115 17.76078796 C12.83868275 17.78288858 9.2558896 17.77331877 5.67167664 17.75567627 C4.0786824 17.77557114 4.0786824 17.77557114 2.45350647 17.79586792 C-2.32545008 17.74112902 -4.71955841 17.70950928 -8.65965271 14.824646 C-11.0718131 11.30026886 -11.1820018 9.32790601 -10.4967804 5.14044189 C-7.32735726 1.12583925 -4.9906032 0.01799518 0 0 Z " fill="#F48D18" transform="translate(54.49678039550781,187.85955810546875)"/>
<path d="M0 0 C0.94632294 -0.00571014 1.89264587 -0.01142029 2.86764526 -0.01730347 C4.43002678 -0.01898026 4.43002678 -0.01898026 6.02397156 -0.02069092 C7.66559265 -0.02813828 7.66559265 -0.02813828 9.34037781 -0.03573608 C12.9740918 -0.05038476 16.60776214 -0.05716433 20.24150085 -0.06268311 C22.7601522 -0.06843246 25.27880353 -0.07419022 27.79745483 -0.07995605 C32.40802605 -0.08912829 37.0185841 -0.09542538 41.62916213 -0.09845281 C48.41309061 -0.10293179 55.19681742 -0.12047123 61.98068458 -0.1494534 C67.85717814 -0.17368678 73.73360449 -0.18139775 79.61014366 -0.18312836 C82.10962713 -0.18615909 84.60910965 -0.19420169 87.10856056 -0.20731354 C90.60395766 -0.22434046 94.09886248 -0.22250167 97.59428406 -0.21600342 C98.62979904 -0.2252182 99.66531403 -0.23443298 100.73220825 -0.243927 C109.66707954 -0.19181077 109.66707954 -0.19181077 113.5032196 3.14044189 C115.16138758 6.45677785 115.7408318 8.21159424 114.8157196 11.82794189 C113.51792793 14.11452723 112.54078777 15.49945075 110.5032196 17.14044189 C108.33642769 17.52355194 108.33642769 17.52355194 105.77229309 17.53485107 C104.79935303 17.54620087 103.82641296 17.55755066 102.82398987 17.56924438 C101.75794525 17.56631378 100.69190063 17.56338318 99.59355164 17.56036377 C98.46973083 17.56883331 97.34591003 17.57730286 96.18803406 17.58602905 C92.46225252 17.6094836 88.73688197 17.6104191 85.0110321 17.60919189 C82.42654758 17.6162888 79.84206464 17.6239871 77.25758362 17.63226318 C71.83534229 17.64572782 66.41326233 17.64744864 60.99101257 17.64141846 C54.72706666 17.63478021 48.46370999 17.65763073 42.19988358 17.69473219 C36.17115672 17.7291433 30.14274255 17.73576482 24.11390305 17.73164368 C21.5502179 17.73333925 18.98652531 17.7430235 16.42290115 17.76078796 C12.83868275 17.78288858 9.2558896 17.77331877 5.67167664 17.75567627 C4.0786824 17.77557114 4.0786824 17.77557114 2.45350647 17.79586792 C-2.32545008 17.74112902 -4.71955841 17.70950928 -8.65965271 14.824646 C-11.0718131 11.30026886 -11.1820018 9.32790601 -10.4967804 5.14044189 C-7.32735726 1.12583925 -4.9906032 0.01799518 0 0 Z " fill="#F48818" transform="translate(54.49678039550781,155.85955810546875)"/>
<path d="M0 0 C0.94632294 -0.00571014 1.89264587 -0.01142029 2.86764526 -0.01730347 C4.43002678 -0.01898026 4.43002678 -0.01898026 6.02397156 -0.02069092 C7.66559265 -0.02813828 7.66559265 -0.02813828 9.34037781 -0.03573608 C12.9740918 -0.05038476 16.60776214 -0.05716433 20.24150085 -0.06268311 C22.7601522 -0.06843246 25.27880353 -0.07419022 27.79745483 -0.07995605 C32.40802605 -0.08912829 37.0185841 -0.09542538 41.62916213 -0.09845281 C48.41309061 -0.10293179 55.19681742 -0.12047123 61.98068458 -0.1494534 C67.85717814 -0.17368678 73.73360449 -0.18139775 79.61014366 -0.18312836 C82.10962713 -0.18615909 84.60910965 -0.19420169 87.10856056 -0.20731354 C90.60395766 -0.22434046 94.09886248 -0.22250167 97.59428406 -0.21600342 C98.62979904 -0.2252182 99.66531403 -0.23443298 100.73220825 -0.243927 C109.66707954 -0.19181077 109.66707954 -0.19181077 113.5032196 3.14044189 C115.16138758 6.45677785 115.7408318 8.21159424 114.8157196 11.82794189 C113.51792793 14.11452723 112.54078777 15.49945075 110.5032196 17.14044189 C108.33642769 17.52355194 108.33642769 17.52355194 105.77229309 17.53485107 C104.79935303 17.54620087 103.82641296 17.55755066 102.82398987 17.56924438 C101.75794525 17.56631378 100.69190063 17.56338318 99.59355164 17.56036377 C98.46973083 17.56883331 97.34591003 17.57730286 96.18803406 17.58602905 C92.46225252 17.6094836 88.73688197 17.6104191 85.0110321 17.60919189 C82.42654758 17.6162888 79.84206464 17.6239871 77.25758362 17.63226318 C71.83534229 17.64572782 66.41326233 17.64744864 60.99101257 17.64141846 C54.72706666 17.63478021 48.46370999 17.65763073 42.19988358 17.69473219 C36.17115672 17.7291433 30.14274255 17.73576482 24.11390305 17.73164368 C21.5502179 17.73333925 18.98652531 17.7430235 16.42290115 17.76078796 C12.83868275 17.78288858 9.2558896 17.77331877 5.67167664 17.75567627 C4.0786824 17.77557114 4.0786824 17.77557114 2.45350647 17.79586792 C-4.72562774 17.71363702 -4.72562774 17.71363702 -8.65965271 14.78948975 C-10.4967804 12.14044189 -10.4967804 12.14044189 -11.0592804 9.14044189 C-10.37320383 5.48136685 -9.06943726 3.78876514 -6.4967804 1.14044189 C-4.11599281 -0.0499519 -2.65727564 0.00958164 0 0 Z " fill="#F38319" transform="translate(54.49678039550781,123.85955810546875)"/>
<path d="M0 0 C0.79205338 -0.0049649 1.58410675 -0.00992981 2.40016174 -0.01504517 C5.02744406 -0.02968175 7.65466598 -0.03647166 10.28198242 -0.04199219 C12.1056061 -0.04774291 13.92922976 -0.05350065 15.75285339 -0.05926514 C19.58035565 -0.06977973 23.40783688 -0.07561923 27.23535156 -0.07910156 C32.13818995 -0.08458379 37.04075026 -0.10860405 41.94350147 -0.13707352 C45.71218169 -0.15570522 49.48079505 -0.16090581 53.24951744 -0.16243744 C55.05681565 -0.16546387 56.86411269 -0.17349209 58.67136574 -0.18662262 C61.20169785 -0.2036925 63.73135229 -0.20180058 66.26171875 -0.1953125 C67.00736084 -0.20452728 67.75300293 -0.21374207 68.52124023 -0.22323608 C72.96928797 -0.18753887 75.80402613 0.39687548 79.32495117 3.16113281 C81.67044791 6.67937793 81.9048652 8.01888975 81.32495117 12.16113281 C78.5712554 15.79983753 77.08174752 17.03450302 72.53039551 17.79605103 C71.03186157 17.82560687 69.53263111 17.82783096 68.03393555 17.80810547 C67.21218338 17.81686707 66.39043121 17.82562866 65.54377747 17.83465576 C62.83487721 17.8566132 60.12761722 17.84211075 57.41870117 17.82519531 C55.53210131 17.82856452 53.64550357 17.833418 51.75891113 17.83969116 C47.80789493 17.84705752 43.8574445 17.83636469 39.90649414 17.81298828 C34.8453442 17.78450055 29.78551995 17.80090581 24.72441864 17.8308506 C20.82954951 17.84893003 16.934994 17.8431626 13.04011536 17.83021164 C11.17421817 17.82687941 9.30829238 17.83095828 7.44242859 17.84260941 C4.83284238 17.85532901 2.22539399 17.83592742 -0.3840332 17.80810547 C-1.53750496 17.8232872 -1.53750496 17.8232872 -2.71427917 17.83877563 C-6.69313041 17.76030007 -8.49587585 17.30245965 -11.65808105 14.80819702 C-13.67504883 12.16113281 -13.67504883 12.16113281 -14.23754883 9.16113281 C-13.55147226 5.50205777 -12.24770569 3.80945605 -9.67504883 1.16113281 C-6.60157834 -0.37560243 -3.37316911 0.00501617 0 0 Z " fill="#F3811A" transform="translate(57.675048828125,91.8388671875)"/>
<path d="M0 0 C0.64574982 -0.0065712 1.29149963 -0.0131424 1.95681763 -0.01991272 C4.09710809 -0.03964753 6.23732837 -0.051309 8.37768555 -0.0612793 C9.47434571 -0.06739259 9.47434571 -0.06739259 10.59316063 -0.07362938 C14.46330864 -0.09449155 18.33342119 -0.10879222 22.20361328 -0.11816406 C26.19856905 -0.12922508 30.19296727 -0.16362023 34.18772602 -0.20333576 C37.26156134 -0.22949875 40.3352638 -0.2378556 43.40920067 -0.24144554 C44.88159129 -0.2463129 46.35397592 -0.25793129 47.82625771 -0.27648354 C49.88982749 -0.30086884 51.95195483 -0.29991224 54.015625 -0.29296875 C55.7752935 -0.30176811 55.7752935 -0.30176811 57.57051086 -0.31074524 C61.38009842 0.28263776 63.02581378 1.44006215 65.7019043 4.17700195 C66.63795643 7.67159658 67.07615819 10.02305243 65.9519043 13.48950195 C64.7019043 15.17700195 64.7019043 15.17700195 61.7019043 17.17700195 C58.75527954 17.45115662 58.75527954 17.45115662 55.10668945 17.48339844 C54.44128647 17.49172195 53.77588348 17.50004547 53.09031677 17.50862122 C50.89047393 17.53271754 48.69092762 17.54149275 46.4909668 17.5480957 C44.96023469 17.55706252 43.42950349 17.56618438 41.89877319 17.57545471 C38.68924836 17.59194637 35.47982785 17.59964509 32.27026367 17.60253906 C28.16194647 17.60792242 24.05461277 17.64559822 19.94657326 17.69128323 C16.78435709 17.72105913 13.62237758 17.72826272 10.46003342 17.72926521 C8.94576896 17.73346673 7.43150374 17.74589852 5.91737747 17.76678276 C3.79615712 17.79371085 1.6772135 17.78887072 -0.4440918 17.77636719 C-1.64971771 17.78143784 -2.85534363 17.78650848 -4.09750366 17.79173279 C-8.24007119 16.99607875 -9.72514457 15.45635461 -12.2980957 12.17700195 C-12.8605957 8.61450195 -12.8605957 8.61450195 -12.2980957 5.17700195 C-8.56528467 0.44877465 -5.83388722 0.04905505 0 0 Z " fill="#F69A15" transform="translate(56.298095703125,251.822998046875)"/>
<path d="M0 0 C0.64574982 -0.0065712 1.29149963 -0.0131424 1.95681763 -0.01991272 C4.09710809 -0.03964753 6.23732837 -0.051309 8.37768555 -0.0612793 C9.47434571 -0.06739259 9.47434571 -0.06739259 10.59316063 -0.07362938 C14.46330864 -0.09449155 18.33342119 -0.10879222 22.20361328 -0.11816406 C26.19856905 -0.12922508 30.19296727 -0.16362023 34.18772602 -0.20333576 C37.26156134 -0.22949875 40.3352638 -0.2378556 43.40920067 -0.24144554 C44.88159129 -0.2463129 46.35397592 -0.25793129 47.82625771 -0.27648354 C49.88982749 -0.30086884 51.95195483 -0.29991224 54.015625 -0.29296875 C55.7752935 -0.30176811 55.7752935 -0.30176811 57.57051086 -0.31074524 C61.38009842 0.28263776 63.02581378 1.44006215 65.7019043 4.17700195 C66.63795643 7.67159658 67.07615819 10.02305243 65.9519043 13.48950195 C64.7019043 15.17700195 64.7019043 15.17700195 61.7019043 17.17700195 C58.75527954 17.45115662 58.75527954 17.45115662 55.10668945 17.48339844 C54.44128647 17.49172195 53.77588348 17.50004547 53.09031677 17.50862122 C50.89047393 17.53271754 48.69092762 17.54149275 46.4909668 17.5480957 C44.96023469 17.55706252 43.42950349 17.56618438 41.89877319 17.57545471 C38.68924836 17.59194637 35.47982785 17.59964509 32.27026367 17.60253906 C28.16194647 17.60792242 24.05461277 17.64559822 19.94657326 17.69128323 C16.78435709 17.72105913 13.62237758 17.72826272 10.46003342 17.72926521 C8.94576896 17.73346673 7.43150374 17.74589852 5.91737747 17.76678276 C3.79615712 17.79371085 1.6772135 17.78887072 -0.4440918 17.77636719 C-1.64971771 17.78143784 -2.85534363 17.78650848 -4.09750366 17.79173279 C-8.24007119 16.99607875 -9.72514457 15.45635461 -12.2980957 12.17700195 C-12.8605957 8.61450195 -12.8605957 8.61450195 -12.2980957 5.17700195 C-8.56528467 0.44877465 -5.83388722 0.04905505 0 0 Z " fill="#F69616" transform="translate(56.298095703125,219.822998046875)"/>
</svg>
