<?xml version="1.0" encoding="utf-8" ?>
<svg baseProfile="full" height="457" version="1.1" width="508" xmlns="http://www.w3.org/2000/svg" xmlns:ev="http://www.w3.org/2001/xml-events" xmlns:xlink="http://www.w3.org/1999/xlink"><defs /><polyline fill="none" points="48,74 47,75 46,75 45,76 45,77 44,78 44,260 45,261 45,262 46,263 47,263 48,264 147,264 148,265 148,301 149,302 149,305 150,306 150,307 151,308 151,310 154,313 154,314 157,317 158,317 160,319 161,319 162,320 163,320 164,321 165,321 166,322 169,322 170,323 235,323 236,324 236,341 235,342 207,342 206,343 204,343 203,344 202,344 201,345 200,345 199,346 198,346 192,352 192,353 191,354 191,355 190,356 190,358 189,359 189,376 190,377 190,378 193,381 372,381 373,380 374,380 375,379 375,378 376,377 376,357 375,356 375,355 374,354 374,353 373,352 373,351 370,348 369,348 366,345 365,345 364,344 363,344 362,343 359,343 358,342 330,342 329,341 329,324 330,323 396,323 397,322 399,322 400,321 401,321 402,320 404,320 405,319 406,319 413,312 413,311 414,310 414,309 415,308 415,307 416,306 416,303 417,302 417,156 416,155 416,152 415,151 415,150 414,149 414,148 413,147 413,146 406,139 405,139 404,138 403,138 402,137 401,137 400,136 397,136 396,135 195,135 194,134 194,108 193,107 193,105 163,75 162,75 161,74" stroke="orange" stroke-width="2" /></svg>